# Blender v2.92.0 OBJ File: 'porta.blend'
# www.blender.org
mtllib portaMovel.mtl
o Cube.001_Cube.006
v -0.917778 0.000000 0.177319
v -0.917778 0.040000 0.184707
v -0.956019 0.040000 0.177319
v -0.917778 0.005344 0.181008
v -0.936874 0.005344 0.177319
v -0.936066 0.010535 0.180852
v -0.936874 0.040000 0.183720
v -0.917778 0.020026 0.183720
v -0.936065 0.020871 0.182762
v -0.950910 0.020026 0.177319
v -0.950910 0.040000 0.181008
v -0.945948 0.020871 0.180852
v -0.917778 3.619853 0.184707
v -0.917778 3.659853 0.177319
v -0.956019 3.619853 0.177319
v -0.917778 3.639827 0.183720
v -0.936874 3.619853 0.183720
v -0.936066 3.638982 0.182762
v -0.936874 3.654510 0.177319
v -0.917778 3.654510 0.181008
v -0.936065 3.649319 0.180852
v -0.950910 3.619853 0.181008
v -0.950910 3.639827 0.177319
v -0.945948 3.638982 0.180852
v -0.917778 0.000000 -0.177319
v -0.956019 0.040000 -0.177319
v -0.917778 0.040000 -0.184707
v -0.936874 0.005344 -0.177319
v -0.917778 0.005344 -0.181008
v -0.936065 0.010535 -0.180852
v -0.950910 0.040000 -0.181008
v -0.950910 0.020026 -0.177319
v -0.945948 0.020871 -0.180852
v -0.917778 0.020026 -0.183720
v -0.936874 0.040000 -0.183720
v -0.936066 0.020871 -0.182762
v -0.917778 3.659853 -0.177319
v -0.917778 3.619853 -0.184707
v -0.956019 3.619853 -0.177319
v -0.917778 3.654510 -0.181008
v -0.936874 3.654510 -0.177319
v -0.936066 3.649319 -0.180852
v -0.936874 3.619853 -0.183720
v -0.917778 3.639827 -0.183720
v -0.936065 3.638982 -0.182762
v -0.950910 3.639827 -0.177319
v -0.950910 3.619853 -0.181008
v -0.945948 3.638982 -0.180852
v 0.917778 0.000000 0.177319
v 0.956019 0.040000 0.177319
v 0.917778 0.040000 0.184707
v 0.936874 0.005344 0.177319
v 0.917778 0.005344 0.181008
v 0.936065 0.010535 0.180852
v 0.950910 0.040000 0.181008
v 0.950910 0.020026 0.177319
v 0.945948 0.020871 0.180852
v 0.917778 0.020026 0.183720
v 0.936874 0.040000 0.183720
v 0.936066 0.020871 0.182762
v 0.917778 3.659853 0.177319
v 0.917778 3.619853 0.184707
v 0.956019 3.619853 0.177319
v 0.917778 3.654510 0.181008
v 0.936874 3.654510 0.177319
v 0.936066 3.649319 0.180852
v 0.936874 3.619853 0.183720
v 0.917778 3.639827 0.183720
v 0.936065 3.638982 0.182762
v 0.950910 3.639827 0.177319
v 0.950910 3.619853 0.181008
v 0.945948 3.638982 0.180852
v 0.917778 0.040000 -0.184707
v 0.956019 0.040000 -0.177319
v 0.917778 0.000000 -0.177319
v 0.936874 0.040000 -0.183720
v 0.917778 0.020026 -0.183720
v 0.936065 0.020871 -0.182762
v 0.950910 0.020026 -0.177319
v 0.950910 0.040000 -0.181008
v 0.945948 0.020872 -0.180852
v 0.917778 0.005344 -0.181008
v 0.936874 0.005344 -0.177319
v 0.936066 0.010535 -0.180852
v 0.917778 3.619853 -0.184707
v 0.917778 3.659853 -0.177319
v 0.956019 3.619853 -0.177319
v 0.917778 3.639827 -0.183720
v 0.936874 3.619853 -0.183720
v 0.936066 3.638982 -0.182762
v 0.936874 3.654510 -0.177319
v 0.917778 3.654510 -0.181008
v 0.936065 3.649319 -0.180852
v 0.950910 3.619853 -0.181008
v 0.950910 3.639827 -0.177319
v 0.945948 3.638982 -0.180852
vt 0.377732 0.755000
vt 0.622268 0.755000
vt 0.622268 0.995000
vt 0.377732 0.995000
vt 0.377732 0.505000
vt 0.622268 0.505000
vt 0.622268 0.745000
vt 0.377732 0.745000
vt 0.630000 0.505000
vt 0.870000 0.505000
vt 0.870000 0.745000
vt 0.630000 0.745000
vt 0.377732 0.005000
vt 0.622268 0.005000
vt 0.622268 0.245000
vt 0.377732 0.245000
vt 0.377732 0.255000
vt 0.622268 0.255000
vt 0.622268 0.495000
vt 0.377732 0.495000
vt 0.130000 0.745000
vt 0.130000 0.747497
vt 0.127609 0.747391
vt 0.127503 0.745000
vt 0.130000 0.750000
vt 0.127609 0.750000
vt 0.377732 0.997497
vt 0.376426 0.997391
vt 0.376368 0.995000
vt 0.377732 0.000668
vt 0.377732 0.000000
vt 0.376426 0.000000
vt 0.376426 0.001317
vt 0.376368 0.005000
vt 0.376426 0.002609
vt 0.377732 0.002503
vt 0.125668 0.745000
vt 0.125000 0.745000
vt 0.125000 0.747391
vt 0.126317 0.747391
vt 0.125000 0.747391
vt 0.623632 0.995000
vt 0.623574 0.997391
vt 0.622268 0.997497
vt 0.625000 0.995000
vt 0.625000 0.997391
vt 0.872497 0.745000
vt 0.872391 0.747391
vt 0.870000 0.747497
vt 0.624635 0.005000
vt 0.625000 0.005000
vt 0.625000 0.002609
vt 0.624280 0.002609
vt 0.622268 0.002503
vt 0.623574 0.002609
vt 0.623632 0.005000
vt 0.622268 0.000000
vt 0.623574 0.000000
vt 0.623574 1.000000
vt 0.130000 0.505000
vt 0.127503 0.505000
vt 0.127609 0.502609
vt 0.130000 0.502503
vt 0.125000 0.505000
vt 0.125000 0.502609
vt 0.377732 0.247497
vt 0.376426 0.247391
vt 0.376368 0.245000
vt 0.377732 0.250000
vt 0.376426 0.250000
vt 0.376368 0.255000
vt 0.376426 0.252609
vt 0.377732 0.252503
vt 0.130000 0.500668
vt 0.130000 0.500000
vt 0.127609 0.500000
vt 0.127609 0.501317
vt 0.127609 0.500000
vt 0.870000 0.502503
vt 0.872391 0.502609
vt 0.872497 0.505000
vt 0.624635 0.255000
vt 0.625000 0.255000
vt 0.625000 0.252609
vt 0.624280 0.252609
vt 0.622268 0.252503
vt 0.623574 0.252609
vt 0.623632 0.255000
vt 0.622268 0.250000
vt 0.623574 0.250000
vt 0.623632 0.245000
vt 0.623574 0.247391
vt 0.622268 0.247497
vt 0.625000 0.245000
vt 0.625000 0.247391
vt 0.370000 0.745000
vt 0.372497 0.745000
vt 0.372391 0.747391
vt 0.370000 0.747497
vt 0.375000 0.745000
vt 0.375000 0.747391
vt 0.377732 0.747497
vt 0.376426 0.747391
vt 0.376368 0.745000
vt 0.377732 0.750000
vt 0.376426 0.750000
vt 0.376368 0.755000
vt 0.376426 0.752609
vt 0.377732 0.752503
vt 0.370000 0.749332
vt 0.370000 0.750000
vt 0.372391 0.750000
vt 0.372391 0.748683
vt 0.372391 0.750000
vt 0.630000 0.747497
vt 0.627609 0.747391
vt 0.627503 0.745000
vt 0.624635 0.755000
vt 0.625000 0.755000
vt 0.625000 0.752609
vt 0.624280 0.752609
vt 0.622268 0.752503
vt 0.623574 0.752609
vt 0.623632 0.755000
vt 0.622268 0.750000
vt 0.623574 0.750000
vt 0.623632 0.745000
vt 0.623574 0.747391
vt 0.622268 0.747497
vt 0.625000 0.745000
vt 0.625000 0.747391
vt 0.377732 0.497497
vt 0.376426 0.497391
vt 0.376368 0.495000
vt 0.377732 0.500000
vt 0.376426 0.500000
vt 0.376368 0.505000
vt 0.376426 0.502609
vt 0.377732 0.502503
vt 0.375000 0.505000
vt 0.375000 0.502609
vt 0.370000 0.505000
vt 0.370000 0.502503
vt 0.372391 0.502609
vt 0.372497 0.505000
vt 0.370000 0.500000
vt 0.372391 0.500000
vt 0.375000 0.497391
vt 0.623632 0.495000
vt 0.623574 0.497391
vt 0.622268 0.497497
vt 0.625000 0.495000
vt 0.625000 0.497391
vt 0.627503 0.505000
vt 0.627609 0.502609
vt 0.630000 0.502503
vt 0.625000 0.505000
vt 0.625000 0.502609
vt 0.622268 0.502503
vt 0.623574 0.502609
vt 0.623632 0.505000
vt 0.622268 0.500000
vt 0.623574 0.500000
vt 0.623574 0.500000
vt 0.125000 0.745000
vt 0.377732 0.000000
vt 0.625000 0.005000
vt 0.130000 0.500000
vt 0.625000 0.255000
vt 0.370000 0.750000
vt 0.625000 0.755000
vn 0.0262 -0.0250 0.9993
vn 0.0262 0.0250 0.9993
vn -0.0262 0.0250 0.9993
vn -0.0262 -0.0250 0.9993
vn 0.8900 -0.1103 -0.4425
vn 0.8900 0.1103 -0.4425
vn 0.8900 0.1103 0.4425
vn 0.8900 -0.1103 0.4425
vn 0.1194 0.8851 -0.4498
vn -0.1194 0.8851 -0.4498
vn -0.1194 0.8851 0.4498
vn 0.1194 0.8851 0.4498
vn -0.8900 -0.1103 0.4425
vn -0.8900 0.1103 0.4425
vn -0.8900 0.1103 -0.4425
vn -0.8900 -0.1103 -0.4425
vn -0.0262 -0.0250 -0.9993
vn -0.0262 0.0250 -0.9993
vn 0.0262 0.0250 -0.9993
vn 0.0262 -0.0250 -0.9993
vn -0.1194 -0.8851 0.4498
vn -0.0594 -0.3941 0.9171
vn -0.2452 -0.3705 0.8959
vn -0.4541 -0.7828 0.4254
vn -0.0283 -0.1169 0.9927
vn -0.1215 -0.1161 0.9858
vn -0.1220 -0.0270 0.9921
vn -0.4067 -0.0559 0.9118
vn -0.3850 -0.2317 0.8933
vn -0.7985 -0.4302 0.4210
vn -0.0283 0.1169 0.9927
vn -0.1215 0.1161 0.9858
vn -0.1220 0.0270 0.9921
vn -0.0594 0.3941 0.9171
vn -0.2452 0.3705 0.8959
vn -0.4541 0.7828 0.4254
vn -0.7985 0.4302 0.4210
vn -0.3850 0.2317 0.8933
vn -0.4067 0.0559 0.9118
vn -0.1194 -0.8851 -0.4498
vn -0.4541 -0.7828 -0.4254
vn -0.2452 -0.3705 -0.8959
vn -0.0594 -0.3941 -0.9171
vn -0.7985 -0.4302 -0.4210
vn -0.3850 -0.2317 -0.8933
vn -0.4067 -0.0559 -0.9118
vn -0.1220 -0.0270 -0.9921
vn -0.1215 -0.1161 -0.9858
vn -0.0283 -0.1169 -0.9927
vn -0.0594 0.3941 -0.9171
vn -0.2452 0.3705 -0.8959
vn -0.4541 0.7828 -0.4254
vn -0.0283 0.1169 -0.9927
vn -0.1215 0.1161 -0.9858
vn -0.1220 0.0270 -0.9921
vn -0.4067 0.0559 -0.9118
vn -0.3849 0.2317 -0.8933
vn -0.7985 0.4302 -0.4210
vn 0.1194 -0.8851 0.4498
vn 0.4541 -0.7828 0.4254
vn 0.2452 -0.3705 0.8959
vn 0.0594 -0.3941 0.9171
vn 0.7985 -0.4302 0.4210
vn 0.3850 -0.2317 0.8933
vn 0.4067 -0.0559 0.9118
vn 0.1220 -0.0270 0.9921
vn 0.1215 -0.1161 0.9858
vn 0.0283 -0.1169 0.9927
vn 0.0594 0.3941 0.9171
vn 0.2452 0.3705 0.8959
vn 0.4541 0.7828 0.4254
vn 0.0283 0.1169 0.9927
vn 0.1215 0.1161 0.9858
vn 0.1220 0.0270 0.9921
vn 0.4067 0.0559 0.9118
vn 0.3849 0.2317 0.8933
vn 0.7985 0.4302 0.4210
vn 0.1220 -0.0270 -0.9921
vn 0.1215 -0.1161 -0.9858
vn 0.0283 -0.1169 -0.9927
vn 0.4067 -0.0559 -0.9118
vn 0.3850 -0.2317 -0.8933
vn 0.7985 -0.4302 -0.4210
vn 0.4541 -0.7828 -0.4254
vn 0.2452 -0.3705 -0.8959
vn 0.1194 -0.8851 -0.4498
vn 0.0594 -0.3941 -0.9171
vn 0.0283 0.1169 -0.9927
vn 0.1215 0.1161 -0.9858
vn 0.1220 0.0270 -0.9921
vn 0.0594 0.3941 -0.9171
vn 0.2452 0.3705 -0.8959
vn 0.4541 0.7828 -0.4254
vn 0.7985 0.4302 -0.4210
vn 0.3850 0.2317 -0.8933
vn 0.4067 0.0559 -0.9118
usemtl Material.001
s 1
f 51/1/1 62/2/2 13/3/3 2/4/4
f 74/5/5 87/6/6 63/7/7 50/8/8
f 86/9/9 37/10/10 14/11/11 61/12/12
f 3/13/13 15/14/14 39/15/15 26/16/16
f 27/17/17 38/18/18 85/19/19 73/20/20
f 1/21/21 4/22/22 6/23/23 5/24/24
f 4/22/22 8/25/25 9/26/26 6/23/23
f 2/4/4 7/27/27 9/28/26 8/29/25
f 7/30/27 11/31/28 12/32/29 9/33/26
f 3/13/13 10/34/30 12/35/29 11/36/28
f 10/37/30 5/38/24 6/39/23 12/40/29
f 6/23/23 9/26/26 12/41/29
f 13/3/3 16/42/31 18/43/32 17/44/33
f 16/42/31 20/45/34 21/46/35 18/43/32
f 14/11/11 19/47/36 21/48/35 20/49/34
f 19/50/36 23/51/37 24/52/38 21/53/35
f 15/14/14 22/54/39 24/55/38 23/56/37
f 22/54/39 17/57/33 18/58/32 24/55/38
f 18/43/32 21/46/35 24/59/38
f 25/60/40 28/61/41 30/62/42 29/63/43
f 28/61/41 32/64/44 33/65/45 30/62/42
f 26/16/16 31/66/46 33/67/45 32/68/44
f 31/66/46 35/69/47 36/70/48 33/67/45
f 27/17/17 34/71/49 36/72/48 35/73/47
f 34/74/49 29/75/43 30/76/42 36/77/48
f 30/62/42 33/65/45 36/78/48
f 37/10/10 40/79/50 42/80/51 41/81/52
f 40/82/50 44/83/53 45/84/54 42/85/51
f 38/18/18 43/86/55 45/87/54 44/88/53
f 43/86/55 47/89/56 48/90/57 45/87/54
f 39/15/15 46/91/58 48/92/57 47/93/56
f 46/91/58 41/94/52 42/95/51 48/92/57
f 42/85/51 45/84/54 48/90/57
f 49/96/59 52/97/60 54/98/61 53/99/62
f 52/97/60 56/100/63 57/101/64 54/98/61
f 50/8/8 55/102/65 57/103/64 56/104/63
f 55/102/65 59/105/66 60/106/67 57/103/64
f 51/1/1 58/107/68 60/108/67 59/109/66
f 58/110/68 53/111/62 54/112/61 60/113/67
f 54/98/61 57/101/64 60/114/67
f 61/12/12 64/115/69 66/116/70 65/117/71
f 64/118/69 68/119/72 69/120/73 66/121/70
f 62/2/2 67/122/74 69/123/73 68/124/72
f 67/122/74 71/125/75 72/126/76 69/123/73
f 63/7/7 70/127/77 72/128/76 71/129/75
f 70/127/77 65/130/71 66/131/70 72/128/76
f 66/121/70 69/120/73 72/126/76
f 73/20/20 76/132/78 78/133/79 77/134/80
f 76/132/78 80/135/81 81/136/82 78/133/79
f 74/5/5 79/137/83 81/138/82 80/139/81
f 79/137/83 83/140/84 84/141/85 81/138/82
f 75/142/86 82/143/87 84/144/85 83/145/84
f 82/143/87 77/146/80 78/147/79 84/144/85
f 78/133/79 81/136/82 84/148/85
f 85/19/19 88/149/88 90/150/89 89/151/90
f 88/149/88 92/152/91 93/153/92 90/150/89
f 86/9/9 91/154/93 93/155/92 92/156/91
f 91/154/93 95/157/94 96/158/95 93/155/92
f 87/6/6 94/159/96 96/160/95 95/161/94
f 94/159/96 89/162/90 90/163/89 96/160/95
f 90/150/89 93/153/92 96/164/95
f 25/60/40 1/21/21 5/24/24 28/61/41
f 28/61/41 5/24/24 10/165/30 32/64/44
f 32/68/44 10/34/30 3/13/13 26/16/16
f 2/4/4 13/3/3 17/44/33 7/27/27
f 7/166/27 17/57/33 22/54/39 11/36/28
f 11/36/28 22/54/39 15/14/14 3/13/13
f 14/11/11 37/10/10 41/81/52 19/47/36
f 19/167/36 41/94/52 46/91/58 23/56/37
f 23/56/37 46/91/58 39/15/15 15/14/14
f 38/18/18 27/17/17 35/73/47 43/86/55
f 43/86/55 35/73/47 31/66/46 47/93/56
f 47/93/56 31/66/46 26/16/16 39/15/15
f 87/6/6 74/5/5 80/139/81 94/159/96
f 94/159/96 80/139/81 76/132/78 89/151/90
f 89/151/90 76/132/78 73/20/20 85/19/19
f 49/96/59 75/142/86 83/145/84 52/97/60
f 52/97/60 83/145/84 79/137/83 56/104/63
f 56/104/63 79/137/83 74/5/5 50/8/8
f 86/9/9 61/12/12 65/117/71 91/154/93
f 91/154/93 65/117/71 70/127/77 95/161/94
f 95/161/94 70/127/77 63/7/7 87/6/6
f 62/2/2 51/1/1 59/109/66 67/122/74
f 67/122/74 59/109/66 55/102/65 71/129/75
f 71/129/75 55/102/65 50/8/8 63/7/7
f 75/142/86 25/60/40 29/63/43 82/143/87
f 82/143/87 29/63/43 34/168/49 77/146/80
f 77/134/80 34/71/49 27/17/17 73/20/20
f 37/10/10 86/9/9 92/156/91 40/79/50
f 40/169/50 92/152/91 88/149/88 44/88/53
f 44/88/53 88/149/88 85/19/19 38/18/18
f 1/21/21 49/96/59 53/99/62 4/22/22
f 4/22/22 53/99/62 58/170/68 8/25/25
f 8/29/25 58/107/68 51/1/1 2/4/4
f 61/12/12 14/11/11 20/49/34 64/115/69
f 64/171/69 20/45/34 16/42/31 68/124/72
f 68/124/72 16/42/31 13/3/3 62/2/2
f 25/60/40 75/142/86 49/96/59 1/21/21
